Motion_kv09_l
version=1
nRows=9
nColumns=43
inDegrees=yes
endheader
time	pelvis_tilt	pelvis_list	pelvis_rotation	pelvis_tx	pelvis_ty	pelvis_tz	hip_flexion_r	hip_adduction_r	hip_rotation_r	knee_angle_r	ankle_angle_r	subtalar_angle_r	mtp_angle_r	hip_flexion_l	hip_adduction_l	hip_rotation_l	knee_angle_l	ankle_angle_l	subtalar_angle_l	mtp_angle_l	lumbar_extension	lumbar_bending	lumbar_rotation	neck_flexion	neck_lateral_bending	neck_rotation	arm_flex_r	arm_add_r	arm_rot_r	elbow_flex_r	pro_sup_r	wrist_flex_r	wrist_dev_r	hand_finger_flex_r	arm_flex_l	arm_add_l	arm_rot_l	elbow_flex_l	pro_sup_l	wrist_flex_l	wrist_dev_l	hand_finger_flex_l
      0.00250000	      0.31955765	    -15.54060386	     84.94863814	      0.00405043	      0.90112566	      1.46546364	    -10.58002431	     -4.95780272	     -4.56291022	    -10.01643248	     -3.69178740	     20.98600832	     45.72553422	    -11.85270502	     -6.62719569	    -15.55038921	    -11.14417479	    -13.44732607	     29.78079829	     58.91677276	    -15.12369713	     -0.74243208	      1.19457199	    -22.68182836	     -0.25428454	     -3.71594719	     12.19587546	    -34.79999845	      1.29134838	    105.69926491	    154.72383150	     -9.34442379	    -15.33464022	     70.14543459	      1.33048882	    -39.96205103	    -11.27937436	    108.34804165	    150.75635177	    -14.02556896	     -9.65527140	     64.65650712
      0.00500000	      0.31877338	    -15.54339725	     84.94887435	      0.00408853	      0.90106734	      1.46529480	    -10.57996620	     -4.95798048	     -4.56268131	    -10.01688101	     -3.69177444	     20.98611021	     45.72551195	    -11.85292605	     -6.62817323	    -15.55018849	    -11.14456221	    -13.44727869	     29.78063700	     58.91674326	    -15.12602647	     -0.74239454	      1.19478199	    -22.68208881	     -0.25430199	     -3.71601781	     12.19547435	    -34.80030406	      1.29152223	    105.69931853	    154.72375485	     -9.34437318	    -15.33488015	     70.14554106	      1.33017935	    -39.96215548	    -11.27929762	    108.34810553	    150.75661762	    -14.02553432	     -9.65523199	     64.65649169
      0.00750000	      0.32482648	    -15.52990756	     84.95761318	      0.00439400	      0.90084934	      1.46471629	    -10.60892731	     -4.93364175	     -4.53690889	    -10.08926179	     -3.69665536	     20.99963482	     45.72414392	    -11.88729109	     -6.66491330	    -15.52738081	    -11.20009854	    -13.45017217	     29.77383729	     58.91439618	    -15.09102230	     -0.77080430	      1.20131972	    -22.70389467	     -0.26302220	     -3.72100485	     12.07047832	    -34.83554149	      1.31612443	    105.72864022	    154.71511378	     -9.33978944	    -15.35996707	     70.16012866	      1.24992649	    -39.97553244	    -11.28161109	    108.37534127	    150.77903684	    -14.02514363	     -9.65530013	     64.66050206
      0.01000000	      0.32445009	    -15.53235133	     84.95844448	      0.00442953	      0.90079592	      1.46454683	    -10.60789118	     -4.93509814	     -4.53662375	    -10.08930919	     -3.69659579	     20.99969569	     45.72412411	    -11.88763708	     -6.66599815	    -15.52715728	    -11.20049902	    -13.45016500	     29.77376108	     58.91437057	    -15.09405446	     -0.77011980	      1.20188324	    -22.70476438	     -0.26294353	     -3.72105755	     12.06990655	    -34.83591481	      1.31575248	    105.72903743	    154.71500248	     -9.33985163	    -15.36016183	     70.16026365	      1.24922558	    -39.97589735	    -11.28200086	    108.37562831	    150.77930802	    -14.02516339	     -9.65525497	     64.66057556
      0.01250000	      0.35579639	    -15.50651599	     84.97814729	      0.00449107	      0.90055871	      1.46396181	    -10.60750482	     -4.91261019	     -4.47233767	    -10.23603763	     -3.69228311	     21.03793783	     45.72173333	    -11.93096631	     -6.71259003	    -15.48336071	    -11.28172241	    -13.45133781	     29.76880778	     58.90831996	    -15.10978785	     -0.73119673	      1.21482252	    -22.87483246	     -0.26662807	     -3.73692666	     11.83510842	    -34.92084630	      1.19299369	    105.93281725	    154.67710862	     -9.37035964	    -15.41699104	     70.20348477	      1.03295889	    -40.02383466	    -11.38281966	    108.53851472	    150.84547260	    -14.04013423	     -9.65574625	     64.69023741
      0.01500000	      0.35750093	    -15.50742672	     84.97922259	      0.00452790	      0.90050728	      1.46380204	    -10.60742785	     -4.91398113	     -4.47215029	    -10.23641979	     -3.69220412	     21.03798513	     45.72172631	    -11.92985152	     -6.71335223	    -15.48332572	    -11.28126261	    -13.45120296	     29.76874481	     58.90830190	    -15.11161586	     -0.73231391	      1.21557129	    -22.87486458	     -0.26678341	     -3.73695867	     11.83459107	    -34.92056697	      1.19302244	    105.93290244	    154.67701829	     -9.37035680	    -15.41716181	     70.20358189	      1.03232248	    -40.02348354	    -11.38289406	    108.53846552	    150.84571168	    -14.04006982	     -9.65568924	     64.69034625
      0.01750000	      0.35825957	    -15.51000722	     84.98082701	      0.00457388	      0.90044749	      1.46363533	    -10.60793935	     -4.91524191	     -4.47177464	    -10.23767876	     -3.69223264	     21.03810215	     45.72172989	    -11.92976434	     -6.71452171	    -15.48317131	    -11.28151263	    -13.45117162	     29.76863817	     58.90829134	    -15.11386396	     -0.73337837	      1.21661013	    -22.87511466	     -0.26697844	     -3.73698897	     11.83331521	    -34.92029742	      1.19326511	    105.93309223	    154.67690016	     -9.37032887	    -15.41738836	     70.20372144	      1.03104287	    -40.02308357	    -11.38295705	    108.53845376	    150.84596617	    -14.03996872	     -9.65564879	     64.69054097
      0.02000000	      0.39163533	    -15.47343243	     85.03136866	      0.00473184	      0.90016690	      1.46285107	    -10.61526321	     -4.88270033	     -4.42065541	    -10.45683454	     -3.67396357	     21.07645942	     45.72398360	    -11.99146043	     -6.77663198	    -15.46035876	    -11.35086193	    -13.45061422	     29.75435632	     58.90687670	    -15.10123293	     -0.70967311	      1.20689466	    -22.99285149	     -0.27803680	     -3.75867370	     11.54029865	    -34.93379793	      1.04175920	    106.10462459	    154.63720725	     -9.40388450	    -15.45987478	     70.24903300	      0.77746789	    -40.01315298	    -11.51415309	    108.67039813	    150.91166447	    -14.03388164	     -9.65146292	     64.75917032
      0.02250000	      0.39193139	    -15.47515382	     85.03230085	      0.00476653	      0.90010463	      1.46270203	    -10.61453186	     -4.88298440	     -4.42061536	    -10.45690049	     -3.67381656	     21.07652635	     45.72398648	    -11.99152785	     -6.77668756	    -15.46029620	    -11.35100420	    -13.45057537	     29.75431399	     58.90688129	    -15.10325259	     -0.70980188	      1.20749627	    -22.99292721	     -0.27813469	     -3.75871665	     11.53974787	    -34.93311803	      1.04211027	    106.10484387	    154.63711174	     -9.40387987	    -15.46007943	     70.24911663	      0.77745287	    -40.01273735	    -11.51430458	    108.67094898	    150.91185002	    -14.03384808	     -9.65149189	     64.75937521
